<?xml version="1.0" encoding="UTF-8"?>
<svg version="1.1" xmlns="http://www.w3.org/2000/svg" width="48" height="48">
<path d="M0 0 C15.84 0 31.68 0 48 0 C48 15.84 48 31.68 48 48 C32.16 48 16.32 48 0 48 C0 32.16 0 16.32 0 0 Z " fill="#FDFDFD" transform="translate(0,0)"/>
<path d="M0 0 C2.73878729 1.78616562 4.70123934 3.70123934 7 6 C7.309375 4.7934375 7.309375 4.7934375 7.625 3.5625 C8.07875 2.716875 8.5325 1.87125 9 1 C12.125 0.1875 12.125 0.1875 15 0 C17 3 17 3 16.9375 5.5 C16 8 16 8 13.625 9.8125 C11 11 11 11 8 11 C8.47859241 12.60433809 8.95789558 14.20846416 9.4375 15.8125 C9.70433594 16.70582031 9.97117187 17.59914063 10.24609375 18.51953125 C10.80387873 20.35473055 11.39344575 22.18033726 12 24 C11.34 24 10.68 24 10 24 C8.515 20.535 8.515 20.535 7 17 C6.67 17 6.34 17 6 17 C6.33 19.31 6.66 21.62 7 24 C5 23 5 23 3.875 19.9375 C3.58625 18.968125 3.2975 17.99875 3 17 C1.04310341 16.77857745 -0.91561952 16.5732432 -2.875 16.375 C-3.96554688 16.25898438 -5.05609375 16.14296875 -6.1796875 16.0234375 C-7.11039063 16.01570313 -8.04109375 16.00796875 -9 16 C-11.35953094 18.35953094 -11.49141413 19.77895617 -12 23 C-13.32 23.33 -14.64 23.66 -16 24 C-17.6557483 19.0327551 -17.82170312 14.16499103 -17 9 C-12.89939566 2.04400102 -8.19402987 -1.17956284 0 0 Z " fill="#777777" transform="translate(24,12)"/>
<path d="M0 0 C1 2 1 2 1 4 C1.33 4.66 1.66 5.32 2 6 C7.94 6 13.88 6 20 6 C20 5.01 20 4.02 20 3 C20.66 3.33 21.32 3.66 22 4 C22.144375 5.051875 22.28875 6.10375 22.4375 7.1875 C23.00864393 11.0585866 24.17194353 13.5823292 26 17 C26 17.66 26 18.32 26 19 C25.34 19 24.68 19 24 19 C22.515 15.535 22.515 15.535 21 12 C20.67 12 20.34 12 20 12 C20.33 14.31 20.66 16.62 21 19 C19 18 19 18 17.875 14.9375 C17.58625 13.968125 17.2975 12.99875 17 12 C15.04310341 11.77857745 13.08438048 11.5732432 11.125 11.375 C10.03445312 11.25898438 8.94390625 11.14296875 7.8203125 11.0234375 C6.88960937 11.01570313 5.95890625 11.00796875 5 11 C2.64046906 13.35953094 2.50858587 14.77895617 2 18 C0.68 18.33 -0.64 18.66 -2 19 C-3.05885037 15.8234489 -3.20049266 13.40011989 -3.25 10.0625 C-3.28867188 8.50208984 -3.28867188 8.50208984 -3.328125 6.91015625 C-2.96423357 3.68278581 -2.16358594 2.36286359 0 0 Z " fill="#4B4B4B" transform="translate(10,17)"/>
<path d="M0 0 C1.8125 1.75 1.8125 1.75 3 4 C2.6875 6.25 2.6875 6.25 2 8 C1.34 7.01 0.68 6.02 0 5 C-0.33 5.99 -0.66 6.98 -1 8 C1.475 8.99 1.475 8.99 4 10 C4.33 8.35 4.66 6.7 5 5 C6.5 6.375 6.5 6.375 8 8 C8 8.66 8 9.32 8 10 C5.04412889 11.47793555 2.35002355 11.17053651 -0.9375 11.1875 C-2.18402344 11.20167969 -3.43054688 11.21585938 -4.71484375 11.23046875 C-8 11 -8 11 -11 9 C-11.99 9.495 -11.99 9.495 -13 10 C-12.1875 7.0625 -12.1875 7.0625 -11 4 C-10.01 3.67 -9.02 3.34 -8 3 C-7.67 2.34 -7.34 1.68 -7 1 C-4 0 -4 0 0 0 Z " fill="#D4D4D4" transform="translate(22,13)"/>
<path d="M0 0 C0.33 0.99 0.66 1.98 1 3 C1.66 3.33 2.32 3.66 3 4 C3.33 4.33 3.66 4.66 4 5 C4.99 5 5.98 5 7 5 C6.67 7.64 6.34 10.28 6 13 C4.35 13.66 2.7 14.32 1 15 C-0.09506492 11.71480525 -0.09960608 9.26336585 -0.0625 5.8125 C-0.05347656 4.72582031 -0.04445313 3.63914062 -0.03515625 2.51953125 C-0.02355469 1.68808594 -0.01195312 0.85664063 0 0 Z " fill="#868686" transform="translate(7,21)"/>
<path d="M0 0 C1.1446875 0.3403125 1.1446875 0.3403125 2.3125 0.6875 C3.24673645 3.69781744 3.35699911 4.55400268 2.3125 7.6875 C-0.0625 9.4375 -0.0625 9.4375 -2.6875 10.6875 C-3.6775 10.3575 -4.6675 10.0275 -5.6875 9.6875 C-5.0275 9.295625 -4.3675 8.90375 -3.6875 8.5 C-1.39583333 6.83333333 -1.39583333 6.83333333 -1.4375 4 C-1.52 3.236875 -1.6025 2.47375 -1.6875 1.6875 C-2.3475 1.6875 -3.0075 1.6875 -3.6875 1.6875 C-4.0175 3.3375 -4.3475 4.9875 -4.6875 6.6875 C-5.375 4.875 -5.375 4.875 -5.6875 2.6875 C-3.97309355 -0.07459928 -3.26180423 -0.37927956 0 0 Z " fill="#707070" transform="translate(37.6875,12.3125)"/>
<path d="M0 0 C0.66 0.33 1.32 0.66 2 1 C2 1.66 2 2.32 2 3 C4.475 3.99 4.475 3.99 7 5 C7.33 3.35 7.66 1.7 8 0 C9.5 1.375 9.5 1.375 11 3 C11 3.66 11 4.32 11 5 C8.23547967 6.38226016 5.9538637 6.09525387 2.875 6.0625 C1.77929688 6.05347656 0.68359375 6.04445313 -0.4453125 6.03515625 C-1.70988281 6.01775391 -1.70988281 6.01775391 -3 6 C-2.01 4.02 -1.02 2.04 0 0 Z " fill="#E8E8E8" transform="translate(19,18)"/>
<path d="M0 0 C4 0 4 0 5.8125 1.75 C7 4 7 4 6.6875 6.25 C6.3471875 7.11625 6.3471875 7.11625 6 8 C5.34 7.01 4.68 6.02 4 5 C0.26360784 6.24546405 -0.18756513 7.63404953 -2 11 C-3 9 -3 9 -2.125 6.0625 C-1.75375 5.051875 -1.3825 4.04125 -1 3 C-0.67 2.01 -0.34 1.02 0 0 Z " fill="#9C9C9C" transform="translate(18,13)"/>
<path d="M0 0 C1 2 1 2 1 4 C1.33 4.66 1.66 5.32 2 6 C5.02934491 6.65772428 5.02934491 6.65772428 8 7 C6.68 8.32 5.36 9.64 4 11 C4 10.34 4 9.68 4 9 C2.35 9.66 0.7 10.32 -1 11 C-2.25 3.375 -2.25 3.375 0 0 Z " fill="#373737" transform="translate(10,17)"/>
<path d="M0 0 C0.66 0.33 1.32 0.66 2 1 C2.144375 2.051875 2.28875 3.10375 2.4375 4.1875 C3.00864393 8.0585866 4.17194353 10.5823292 6 14 C6 14.66 6 15.32 6 16 C5.34 16 4.68 16 4 16 C3.30300448 14.54618103 2.61766134 13.08677047 1.9375 11.625 C1.55464844 10.81289063 1.17179687 10.00078125 0.77734375 9.1640625 C0.52082031 8.44992188 0.26429687 7.73578125 0 7 C0.33 6.34 0.66 5.68 1 5 C-0.98 5 -2.96 5 -5 5 C-2 3 -2 3 0 3 C0 2.01 0 1.02 0 0 Z " fill="#464646" transform="translate(30,20)"/>
<path d="M0 0 C0.66 0 1.32 0 2 0 C2.6875 2.3125 2.6875 2.3125 3 5 C1.5625 6.8125 1.5625 6.8125 0 8 C-0.99 7.67 -1.98 7.34 -3 7 C-2.01 4.69 -1.02 2.38 0 0 Z " fill="#ECECEC" transform="translate(34,14)"/>
<path d="M0 0 C3 1 3 1 3.94921875 2.84765625 C4.19285156 3.57855469 4.43648437 4.30945312 4.6875 5.0625 C4.93886719 5.79597656 5.19023438 6.52945313 5.44921875 7.28515625 C5.63097656 7.85105469 5.81273437 8.41695312 6 9 C4.68 9 3.36 9 2 9 C1.34 6.03 0.68 3.06 0 0 Z " fill="#B7B7B7" transform="translate(29,28)"/>
<path d="M0 0 C1.98 0 3.96 0 6 0 C5.814375 0.515625 5.62875 1.03125 5.4375 1.5625 C4.84580483 4.85908739 5.432733 7.72245735 6 11 C5.34 10.67 4.68 10.34 4 10 C3.4375 8.22265625 3.4375 8.22265625 3 6.0625 C2.39617423 3.09189285 2.21308826 2.21308826 0 0 Z " fill="#6C6C6C" transform="translate(25,25)"/>
<path d="M0 0 C1.5 1.375 1.5 1.375 3 3 C3 3.66 3 4.32 3 5 C1.02 5.33 -0.96 5.66 -3 6 C-2.34 5.67 -1.68 5.34 -1 5 C-0.34444881 2.47266765 -0.34444881 2.47266765 0 0 Z " fill="#D6D6D6" transform="translate(27,18)"/>
<path d="M0 0 C1.32 0.99 2.64 1.98 4 3 C3.67 4.32 3.34 5.64 3 7 C2.34 6.01 1.68 5.02 1 4 C0.34 4 -0.32 4 -1 4 C-0.67 2.68 -0.34 1.36 0 0 Z " fill="#EEEEEE" transform="translate(21,14)"/>
</svg>
